PathFileType	4	(X/Y/Z)	/Users/itak/Documents/Research/Walk-IL/dataset/trc/00014_00004.trc
DataRate	CameraRate	NumFrames	NumMarkers	Units	OrigDataRate	OrigDataStartFrame	OrigNumFrames
100.000000	100.000000	4	56	mm	100.000000	340	544
Frame#	Time	LMT1			RPSI			LPSI			L3			STRN			T10			C7			CLAV			RBAK			LBAK			LSHO			LUPA			LAEL			LAOL			LWTS			LWPS			LFRA			LIFD			LHPS			RSHO			RUPA			RAEL			RAOL			RWTS			RWPS			RFRA			RIFD			RHTS			RHPS			RBHD			LFHD			RFHD			LBHD			LHIP			RHIP			RASI			LASI			LKNE			LTHI			LANK			LTIP			LTOE			LMT5			LHEE			RKNE			RANK			RTIP			RTOE			RMT1			RMT5			RHEE			LHTS			RTHI			*53			*54			*55			
		X1	Y1	Z1	X2	Y2	Z2	X3	Y3	Z3	X4	Y4	Z4	X5	Y5	Z5	X6	Y6	Z6	X7	Y7	Z7	X8	Y8	Z8	X9	Y9	Z9	X10	Y10	Z10	X11	Y11	Z11	X12	Y12	Z12	X13	Y13	Z13	X14	Y14	Z14	X15	Y15	Z15	X16	Y16	Z16	X17	Y17	Z17	X18	Y18	Z18	X19	Y19	Z19	X20	Y20	Z20	X21	Y21	Z21	X22	Y22	Z22	X23	Y23	Z23	X24	Y24	Z24	X25	Y25	Z25	X26	Y26	Z26	X27	Y27	Z27	X28	Y28	Z28	X29	Y29	Z29	X30	Y30	Z30	X31	Y31	Z31	X32	Y32	Z32	X33	Y33	Z33	X34	Y34	Z34	X35	Y35	Z35	X36	Y36	Z36	X37	Y37	Z37	X38	Y38	Z38	X39	Y39	Z39	X40	Y40	Z40	X41	Y41	Z41	X42	Y42	Z42	X43	Y43	Z43	X44	Y44	Z44	X45	Y45	Z45	X46	Y46	Z46	X47	Y47	Z47	X48	Y48	Z48	X49	Y49	Z49	X50	Y50	Z50	X51	Y51	Z51	X52	Y52	Z52	X53	Y53	Z53	X54	Y54	Z54	X55	Y55	Z55	X56	Y56	Z56	

341	3.4	-554.6760864257812	59.06996917724609	-304.8595275878906	-409.8344421386719	1037.451538085938	-168.3297882080078	-443.1645202636719	1033.599975585938	-327.6188354492188	-427.2551574707031	1103.65087890625	-259.6425476074219	-193.9633026123047	1286.59814453125	-286.13916015625	-442.1493225097656	1244.9970703125	-264.8877563476562	-389.8003540039062	1510.549926757812	-278.3071594238281	-233.0346832275391	1414.188110351562	-284.1958618164062	-437.4654235839844	1373.697387695312	-196.0472717285156	-413.8839111328125	1471.478149414062	-376.6278381347656	-314.3465270996094	1477.31005859375	-455.5892028808594	-346.7841796875	1353.229370117188	-533.561767578125	-335.3393249511719	1134.24560546875	-557.6558227539062	-398.1373901367188	1117.545776367188	-473.3867797851562	-189.9203491210938	926.9305419921875	-463.04052734375	-249.5055236816406	885.0697021484375	-513.955322265625	-293.1821899414062	1025.974609375	-550.688720703125	-106.5971145629883	764.5169067382812	-421.6458129882812	-189.1850891113281	812.857666015625	-498.5619812011719	-299.8493041992188	1491.945922851562	-109.9466247558594	-311.4429321289062	1421.582153320312	-36.92010116577148	-356.7635803222656	1159.361206054688	2.542168140411377	-362.6260070800781	1124.86279296875	-91.36510467529297	-223.6107177734375	901.338134765625	-16.93620491027832	-287.1763916015625	888.3743896484375	48.8385009765625	-342.7397766113281	1083.91064453125	22.59105491638184	-198.8060913085938	714.1229858398438	-17.32456207275391	-188.2552947998047	792.8096313476562	4.192147731781006	-244.0374145507812	790.0303955078125	54.2636604309082	-338.3857116699219	1680.466430664062	-194.9994201660156	-164.8803405761719	1710.808837890625	-311.8238830566406	-166.5762481689453	1706.160522460938	-213.3557891845703	-344.4672241210938	1691.747314453125	-339.2216796875	-376.7036743164062	931.3324584960938	-450.4574279785156	-274.0369262695312	936.595947265625	-91.96563720703125	-193.3020629882812	962.4471435546875	-186.3407135009766	-246.7774047851562	972.3983764648438	-414.2672119140625	-358.0427856445312	479.4459228515625	-423.2303771972656	-372.1033325195312	624.5135498046875	-451.3912963867188	-690.9653930664062	94.17488098144531	-410.3401794433594	-540.4097900390625	295.2147827148438	-434.4072570800781	-500.5872192382812	38.66672897338867	-312.1975402832031	-577.2574462890625	41.29265975952148	-408.4115905761719	-755.0752563476562	139.0121307373047	-370.2651062011719	-153.7201385498047	526.997314453125	-135.0889587402344	-96.32552337646484	29.76007843017578	-168.5182647705078	-136.7557220458984	401.1828002929688	-134.6363525390625	121.4052200317383	89.20137786865234	-199.1061401367188	60.70958709716797	82.00764465332031	-233.0221557617188	54.74645614624023	44.88162231445312	-144.2721252441406	-151.8743438720703	30.60382843017578	-214.7700805664062	-136.9639587402344	846.1360473632812	-463.6402282714844	-219.9791412353516	782.6138305664062	-91.20861053466797	nan	nan	nan	nan	nan	nan	nan	nan	nan	
342	3.41	-556.0005493164062	58.36888885498047	-304.7516479492188	-420.5084533691406	1035.57763671875	-169.1525115966797	-453.7333068847656	1032.18408203125	-328.4154052734375	-437.5936889648438	1102.504516601562	-260.7420349121094	-203.2178649902344	1284.644653320312	-288.1862182617188	-451.5362548828125	1244.015869140625	-266.8104248046875	-398.0232543945312	1509.36474609375	-280.5292663574219	-241.7244567871094	1412.4375	-286.4139099121094	-446.43408203125	1372.825317382812	-198.1236419677734	-422.2986755371094	1470.243530273438	-378.793701171875	-322.773681640625	1475.656860351562	-457.8980102539062	-355.8283081054688	1351.541381835938	-535.6607666015625	-345.4122314453125	1132.389770507812	-559.50439453125	-408.149658203125	1116.180541992188	-475.0948486328125	-202.6251220703125	922.6914672851562	-465.8318786621094	-263.0219421386719	881.8764038085938	-516.6823120117188	-304.6811218261719	1023.488708496094	-552.8970947265625	-121.4745635986328	759.0172119140625	-425.3815612792969	-203.6194458007812	808.7628784179688	-501.7508239746094	-308.2300415039062	1490.3349609375	-112.1417541503906	-319.7249755859375	1419.850708007812	-39.14580154418945	-363.1874389648438	1157.226806640625	0.991284966468811	-369.8060302734375	1122.68603515625	-92.85722351074219	-225.9435119628906	901.4840087890625	-20.6274528503418	-288.4471740722656	887.14892578125	45.87359237670898	-347.9136047363281	1081.757080078125	20.83061027526855	-197.4693603515625	714.820556640625	-21.83173751831055	-188.2157592773438	793.659912109375	-0.2443671375513077	-243.4047241210938	789.6278076171875	50.41553115844727	-346.6904602050781	1678.686279296875	-197.1650390625	-172.7784729003906	1709.19482421875	-313.3720703125	-174.8260803222656	1704.378662109375	-214.9094696044922	-352.2899780273438	1690.193481445312	-341.3793640136719	-387.3292541503906	930.08447265625	-451.2521667480469	-284.4909057617188	934.8026733398438	-92.72335815429688	-204.0194091796875	960.8516235351562	-187.2487487792969	-257.2937316894531	970.7987670898438	-415.2547607421875	-368.5376586914062	478.5819091796875	-423.6068420410156	-382.5968017578125	623.4732666015625	-452.0298461914062	-695.033935546875	88.65045928955078	-409.8230285644531	-548.2784423828125	292.004638671875	-434.3160705566406	-501.0805358886719	38.81361389160156	-312.1855163574219	-579.3021240234375	40.08161926269531	-408.2230529785156	-760.7169799804688	131.7537384033203	-369.4416809082031	-160.6847991943359	526.7557373046875	-136.1928863525391	-96.76056671142578	30.02533912658691	-168.8026428222656	-142.2842712402344	401.1954040527344	-135.5971374511719	119.4393615722656	94.87529754638672	-199.4255828857422	58.84758377075195	86.14963531494141	-233.2496185302734	53.56040191650391	48.46982574462891	-144.6649627685547	-152.3387451171875	29.58208847045898	-214.8918914794922	-150.8989105224609	841.1604614257812	-466.9084167480469	-229.4404907226562	781.3084106445312	-92.17662811279297	nan	nan	nan	nan	nan	nan	nan	nan	nan	
343	3.42	-557.1620483398438	57.65316772460938	-304.6228637695312	-431.2972106933594	1033.781127929688	-169.9674835205078	-464.2994384765625	1030.926635742188	-329.2127380371094	-447.9807739257812	1101.503540039062	-261.8329162597656	-212.4406585693359	1282.843872070312	-290.1375427246094	-460.9448852539062	1243.201538085938	-268.7580261230469	-406.2208862304688	1508.32275390625	-282.7730407714844	-250.3931579589844	1410.835571289062	-288.5787048339844	-455.4247741699219	1372.113891601562	-200.2382659912109	-430.6441955566406	1469.149536132812	-380.9884643554688	-331.1119079589844	1474.127319335938	-460.1884460449219	-364.7169189453125	1349.986572265625	-537.7706909179688	-355.3217163085938	1130.666381835938	-561.3388061523438	-418.0531921386719	1114.96630859375	-476.8358764648438	-215.4638214111328	918.4456176757812	-468.6102905273438	-276.656005859375	878.7739868164062	-519.4293823242188	-316.1183471679688	1021.116821289062	-555.1013793945312	-136.7091064453125	753.4380493164062	-429.1264343261719	-218.2933349609375	804.702880859375	-504.9693603515625	-316.6775512695312	1488.891723632812	-114.3229141235352	-328.0638427734375	1418.276977539062	-41.35380554199219	-369.6092529296875	1155.243408203125	-0.6007837653160095	-376.9350891113281	1120.657348632812	-94.39656829833984	-228.3617401123047	901.8364868164062	-24.32672119140625	-289.8243103027344	886.1597900390625	42.83903503417969	-353.0752258300781	1079.78173828125	19.01892280578613	-196.3193206787109	715.7752685546875	-26.39921188354492	-188.3338928222656	794.7381591796875	-4.709671497344971	-242.9223327636719	789.4774780273438	46.49543380737305	-354.9410400390625	1677.053955078125	-199.3436584472656	-180.6054534912109	1707.679565429688	-314.9207458496094	-183.0108642578125	1702.703369140625	-216.4626617431641	-360.0436706542969	1688.778076171875	-343.5482482910156	-397.8393859863281	929.0736083984375	-452.0289306640625	-295.0924377441406	933.0849609375	-93.36724853515625	-214.8059692382812	959.3921508789062	-187.9608001708984	-267.7352905273438	969.4242553710938	-416.0837097167969	-378.5746459960938	477.9021606445312	-424.2277221679688	-392.7919921875	622.6357421875	-452.7803649902344	-698.6419067382812	83.54261016845703	-409.0909423828125	-555.6550903320312	288.9984741210938	-434.1405639648438	-501.4894104003906	38.91501235961914	-312.189208984375	-581.1515502929688	39.11754608154297	-408.0437316894531	-765.7109985351562	124.8978118896484	-368.30810546875	-167.9127349853516	526.5404052734375	-137.3401489257812	-97.43474578857422	30.43710708618164	-169.1913909912109	-148.1329193115234	401.2621765136719	-136.6485595703125	117.0616302490234	101.1170806884766	-199.7933502197266	56.62643051147461	90.67922210693359	-233.5338287353516	51.97412872314453	52.70641708374023	-145.0054016113281	-152.9187927246094	28.492919921875	-215.1277770996094	-165.0789031982422	836.1372680664062	-470.1709899902344	-239.0875854492188	780.0372314453125	-93.05618286132812	nan	nan	nan	nan	nan	nan	nan	nan	nan	
344	3.43	-558.1860961914062	56.92310333251953	-304.4783935546875	-442.1475830078125	1032.0927734375	-170.7763671875	-474.8355712890625	1029.837036132812	-330.0079040527344	-458.3824768066406	1100.66259765625	-262.9042053222656	-221.6102752685547	1281.222778320312	-291.978515625	-470.3575134277344	1242.5615234375	-270.6979370117188	-414.3951416015625	1507.434204101562	-285.0123901367188	-259.0328674316406	1409.403686523438	-290.6705322265625	-464.4144897460938	1371.56982421875	-202.3593597412109	-438.9200134277344	1468.205688476562	-383.1870422363281	-339.361328125	1472.73828125	-462.4348449707031	-373.4404907226562	1348.584228515625	-539.8736572265625	-365.0587768554688	1129.095581054688	-563.1489868164062	-427.8443298339844	1113.923217773438	-478.6033325195312	-228.4423675537109	914.2173461914062	-471.3688049316406	-290.4026489257812	875.792236328125	-522.1917724609375	-327.4852294921875	1018.884033203125	-557.2926025390625	-152.3185577392578	747.8094482421875	-432.8631896972656	-233.2142333984375	800.7091674804688	-508.2102355957031	-325.1724243164062	1487.646362304688	-116.4682540893555	-336.4359130859375	1416.892456054688	-43.51987457275391	-376.0171508789062	1153.439819335938	-2.238073348999023	-383.9809265136719	1118.814086914062	-95.98813629150391	-230.8739013671875	902.4088134765625	-28.01940155029297	-291.3316040039062	885.42236328125	39.73460388183594	-358.2239990234375	1078.01171875	17.15119743347168	-195.3911743164062	716.9948120117188	-31.01634216308594	-188.636474609375	796.0474853515625	-9.187142372131348	-242.6222076416016	789.5880126953125	42.51181793212891	-363.1295471191406	1675.599487304688	-201.5180053710938	-188.3579406738281	1706.2734375	-316.4686279296875	-191.1187896728516	1701.15234375	-218.0132293701172	-367.728271484375	1687.519165039062	-345.7126770019531	-408.224609375	928.3007202148438	-452.7879333496094	-305.7828674316406	931.4756469726562	-93.92448425292969	-225.6138763427734	958.0879516601562	-188.509521484375	-278.0855407714844	968.2952270507812	-416.7787475585938	-388.0931091308594	477.3973999023438	-425.0234680175781	-402.6373596191406	621.985107421875	-453.6059875488281	-701.7894287109375	78.85853576660156	-408.2026062011719	-562.4920043945312	286.1985168457031	-433.8864135742188	-501.8250122070312	38.9886589050293	-312.2078857421875	-582.7899780273438	38.3684196472168	-407.8799438476562	-770.0667114257812	118.4606628417969	-366.9588623046875	-175.3801879882812	526.3607788085938	-138.5257415771484	-98.4488525390625	30.99408340454102	-169.6939697265625	-154.2949066162109	401.387451171875	-137.7766723632812	114.2370071411133	107.723503112793	-200.1014862060547	54.02217864990234	95.46462249755859	-233.800537109375	49.89805221557617	57.44462203979492	-145.2296447753906	-153.6824188232422	27.37498474121094	-215.5184631347656	-179.5112152099609	831.092529296875	-473.4121398925781	-248.8813629150391	778.8283081054688	-93.86485290527344	nan	nan	nan	nan	nan	nan	nan	nan	nan	
